<svg width="133" height="100" viewBox="0 0 133 100" fill="none" xmlns="http://www.w3.org/2000/svg">
<path fill-rule="evenodd" clip-rule="evenodd" d="M86.2078 6.01032C79.738 5.83329 74.8231 8.02883 70.2211 12.1701C67.031 9.57064 61.4182 9.88495 57.1514 9.2668C39.5113 7.57306 20.701 14.4907 11.6975 29.8679C7.85154 35.8711 4.18751 42.9415 5.15794 50.5037C5.81431 53.8657 10.2008 54.3026 12.4029 52.4657C13.0676 52.3335 13.8237 50.3208 13.994 51.7856C15.723 56.8556 19.3932 61.0872 22.0332 65.7013C23.3792 73.9202 18.5163 81.8875 21.1492 90.0406C24.1847 95.5797 31.3296 96.3602 36.8443 95.8476C41.247 95.74 46.9271 96.4883 49.857 92.6304C52.07 88.2569 47.868 83.9001 46.7451 79.6953C46.0347 77.4868 45.4103 74.1479 47.377 72.6851C49.4424 72.9953 51.0418 74.9221 53.2452 74.9087C57.355 75.752 61.5217 74.3358 65.4109 74.111C68.4485 78.8482 65.6659 84.2098 65.494 89.1776C65.4649 92.2847 68.0268 94.8347 71.0365 95.2461C76.1479 96.5335 81.457 95.8639 86.5484 95.4814C90.2856 94.6611 92.9987 90.4734 91.2365 86.6665C89.6653 81.9528 87.4462 76.8665 89.2811 72.0967C90.2573 68.8528 93.2567 66.9975 96.2519 65.9889C96.966 65.5984 99.5075 63.7347 99.3036 64.4441C95.6478 68.5673 90.7375 73.4778 92.3162 79.787C93.3564 84.2818 95.7849 89.0667 99.9608 91.3749C105.734 93.9027 113.356 88.6574 111.723 82.2587C111.199 80.3607 109.323 79.1973 107.924 78.1916C108.549 75.6934 111.532 74.6564 113.221 72.9467C119.11 68.6368 124.42 63.0919 126.292 55.7486C130.571 41.7873 126.664 24.9733 116.218 14.0412C109.756 8.33434 100.876 7.61073 92.909 6.33718C90.6786 6.09444 88.4382 5.96052 86.2082 6.01032H86.2078Z" fill="black"/>
<path fill-rule="evenodd" clip-rule="evenodd" d="M114.674 66.5021C118.299 63.3885 124.615 56.642 123.952 42.6303C123.288 28.6187 115.386 15.6449 108.535 13.8285C101.683 12.012 73.9041 2.41151 69.6707 22.91C65.4374 43.4085 82.6717 50.1551 87.0588 49.3765C91.4455 48.5983 95.8736 37.7003 95.8736 37.7003C95.8736 37.7003 94.3574 49.6362 88.9537 50.9337C83.551 52.2308 69.9208 50.1551 66.0847 35.1056C62.249 20.0557 70.1192 15.9042 64.8533 14.6071C57.8392 12.8788 39.1543 10.4552 24.5651 21.094C9.97594 31.7323 5.48258 52.2308 9.28767 50.1551C13.0928 48.0794 14.5946 41.3328 15.609 46.2629C16.6234 51.193 20.6356 58.9774 24.1658 62.091C27.696 65.2046 22.6086 84.1467 23.549 87.5196C24.4895 90.8929 30.0034 91.9307 34.1669 91.9307C38.3308 91.9307 47.7111 92.1904 47.0555 89.3361C46.3999 86.4817 43.0313 81.2924 42.5125 75.8434C41.9942 70.3944 45.8117 68.5779 47.3854 68.8376C48.9591 69.0968 49.84 71.3415 56.356 71.4322C62.6029 71.5188 62.5152 69.6157 65.1298 69.8754C67.7444 70.1351 69.4905 74.0269 69.7116 78.6973C69.9328 83.3681 68.2958 87.2603 68.4186 89.855C68.5418 92.4497 87.3027 92.9686 87.9356 89.855C88.5689 86.7414 85.2495 82.5895 85.0651 78.6973C84.8808 74.8055 85.0321 67.0211 89.878 64.9453C94.724 62.8696 99.7072 58.1988 102.978 61.3124C106.248 64.4264 94.8451 70.9133 94.8551 76.6216C94.8654 82.3303 100.092 88.2982 101.394 88.2982C102.695 88.2982 108.086 86.7414 108.199 83.6274C108.311 80.5138 103.937 81.5516 103.764 77.9187C103.593 74.2866 110.897 69.7452 114.673 66.5021H114.674Z" fill="white"/>
<path d="M113 39.5C113 39.8283 112.948 40.1534 112.848 40.4567C112.747 40.76 112.6 41.0356 112.414 41.2678C112.229 41.4999 112.008 41.6841 111.765 41.8097C111.523 41.9353 111.263 42 111 42C110.737 42 110.477 41.9353 110.235 41.8097C109.992 41.6841 109.772 41.4999 109.586 41.2678C109.4 41.0356 109.253 40.76 109.152 40.4567C109.052 40.1534 109 39.8283 109 39.5C109 38.837 109.211 38.2011 109.586 37.7322C109.961 37.2634 110.47 37 111 37C111.53 37 112.039 37.2634 112.414 37.7322C112.789 38.2011 113 38.837 113 39.5V39.5Z" fill="black"/>
<path fill-rule="evenodd" clip-rule="evenodd" d="M116.582 59.3973C118.416 57.9408 113.73 54.8197 111.897 51.9067C110.063 48.9936 106.397 53.7793 107.415 56.6924C108.434 59.6054 114.341 60.4377 116.582 59.3973ZM42.7784 92.7882C45.9274 92.3471 49.7824 91.6113 49.6871 89.5514C49.5917 87.4914 47.0763 82.9305 47.0763 82.9305C47.0763 82.9305 45.0254 82.1947 43.3851 84.1078C41.7452 86.0204 41.5855 91.9055 42.7784 92.7886V92.7882ZM83.3995 92.9996C86.548 92.5585 90.403 91.8227 90.3077 89.7628C90.2123 87.7029 87.6969 83.1419 87.6969 83.1419C87.6969 83.1419 85.646 82.4061 84.0057 84.3192C82.3658 86.2318 82.2061 92.1169 83.3995 93V92.9996Z" fill="#BFBFBF" stroke="black" stroke-width="0.83125"/>
</svg>
