<svg xmlns="http://www.w3.org/2000/svg" width="640" height="480"><path fill-rule="evenodd" d="M315.482 74.025c-15.574-.423-27.405 4.823-38.483 14.718-7.679-6.211-21.19-5.46-31.461-6.937-42.463-4.047-87.743 12.482-109.416 49.224-9.258 14.344-18.078 31.238-15.742 49.307 1.58 8.033 12.139 9.077 17.44 4.688 1.6-.316 3.42-5.125 3.83-1.625 4.162 12.114 12.997 22.225 19.352 33.25 3.24 19.638-8.466 38.675-2.128 58.156 7.307 13.235 24.506 15.1 37.781 13.875 10.598-.257 24.271 1.531 31.324-7.687 5.327-10.45-4.788-20.86-7.491-30.907-1.71-5.277-3.213-13.255 1.521-16.75 4.972.741 8.822 5.345 14.126 5.313 9.893 2.015 19.923-1.369 29.285-1.906 7.312 11.319.614 24.13.2 36-.07 7.424 6.097 13.517 13.342 14.5 12.304 3.076 25.084 1.476 37.34.562 8.996-1.96 15.527-11.966 11.285-21.062-3.782-11.263-9.124-23.416-4.707-34.813 2.35-7.751 9.57-12.184 16.78-14.594 1.719-.933 7.837-5.386 7.346-3.691-8.8 9.852-20.62 21.585-16.82 36.66 2.504 10.74 8.35 22.173 18.402 27.688 13.897 6.04 32.245-6.493 28.314-21.782-1.262-4.535-5.778-7.315-9.146-9.718 1.506-5.969 8.687-8.447 12.751-12.532 14.177-10.298 26.96-23.547 31.465-41.093 10.3-33.359.895-73.534-24.249-99.655-15.556-13.636-36.933-15.365-56.11-18.408-5.369-.58-10.762-.9-16.13-.781z"/><path fill="#fff" fill-rule="evenodd" d="M385.41 219.16c8.77-7.554 24.05-23.922 22.444-57.916-1.606-33.994-20.72-65.47-37.295-69.877-16.576-4.407-83.776-27.699-94.017 22.033s31.451 66.1 42.064 64.211c10.612-1.888 21.324-28.328 21.324-28.328s-3.668 28.958-16.74 32.106c-13.07 3.147-46.043-1.889-55.323-38.401-9.279-36.513 9.76-46.585-2.979-49.732-16.968-4.193-62.169-10.073-97.462 15.738-35.293 25.81-46.163 75.542-36.958 70.506 9.205-5.036 12.838-21.404 15.292-9.443 2.454 11.961 12.16 30.847 20.7 38.401 8.54 7.554-3.767 53.51-1.492 61.693 2.275 8.184 15.614 10.702 25.686 10.702 10.073 0 32.765.63 31.179-6.295-1.586-6.925-9.735-19.515-10.99-32.735-1.254-13.22 7.981-17.627 11.788-16.997 3.807.629 5.938 6.075 21.701 6.295 15.112.21 14.9-4.407 21.225-3.777 6.325.63 10.549 10.072 11.084 21.403.535 11.332-3.425 20.775-3.128 27.07.298 6.295 45.683 7.554 47.214 0 1.532-7.554-6.498-17.627-6.944-27.07-.446-9.442-.08-28.328 11.643-33.364 11.723-5.036 23.778-16.368 31.69-8.814 7.91 7.555-19.674 23.293-19.65 37.142.025 13.85 12.67 28.329 15.818 28.329 3.148 0 16.19-3.777 16.462-11.332.272-7.554-10.31-5.036-10.727-13.85-.416-8.812 17.255-19.83 26.39-27.698z"/><path d="M383.447 154.617a6.295 6.295 0 11-12.59 0 6.295 6.295 0 0112.59 0z"/><path fill="#bfbfbf" fill-rule="evenodd" stroke="#000" stroke-width="4" d="M392.186 204.262c4.5-3.5-7-11-11.5-18s-13.5 4.5-11 11.5 17 9 22.5 6.5zM211.037 284.5c7.729-1.06 17.191-2.828 16.957-7.778-.234-4.95-6.408-15.91-6.408-15.91s-5.034-1.768-9.06 2.829c-4.025 4.596-4.417 18.738-1.489 20.86zM310.74 285.008c7.728-1.06 17.19-2.828 16.956-7.778-.234-4.95-6.408-15.91-6.408-15.91s-5.034-1.768-9.06 2.829c-4.025 4.596-4.417 18.738-1.488 20.86z"/></svg>