<svg width="133" height="100" viewBox="0 0 133 100" fill="none" xmlns="http://www.w3.org/2000/svg">
<path fill-rule="evenodd" clip-rule="evenodd" d="M75.6236 28.0051C72.3872 27.9172 69.9285 29.0074 67.6264 31.0637C66.0306 29.773 63.2228 29.9291 61.0884 29.6221C52.2641 28.7811 42.8543 32.216 38.3504 39.8515C36.4265 42.8323 34.5936 46.3431 35.079 50.0981C35.4074 51.7674 37.6016 51.9844 38.7033 51.0723C39.0358 51.0066 39.414 50.0073 39.4992 50.7346C40.3641 53.2521 42.2001 55.3533 43.5208 57.6444C44.1941 61.7254 41.7614 65.6815 43.0785 69.7299C44.597 72.4803 48.1712 72.8679 50.9299 72.6133C53.1323 72.5599 55.9737 72.9315 57.4394 71.0159C58.5464 68.8442 56.4444 66.6809 55.8827 64.593C55.5273 63.4964 55.215 61.8385 56.1988 61.1122C57.232 61.2661 58.0321 62.2229 59.1343 62.2163C61.1902 62.635 63.2746 61.9318 65.2201 61.8202C66.7397 64.1724 65.3477 66.8347 65.2617 69.3014C65.2472 70.8442 66.5287 72.1104 68.0343 72.3147C70.5913 72.9539 73.2471 72.6214 75.7941 72.4315C77.6635 72.0242 79.0208 69.9448 78.1392 68.0545C77.3533 65.714 76.2431 63.1884 77.161 60.82C77.6494 59.2092 79.1498 58.288 80.6481 57.7872C81.0054 57.5933 82.2768 56.6679 82.1747 57.0201C80.346 59.0675 77.8896 61.5058 78.6793 64.6385C79.1997 66.8704 80.4146 69.2463 82.5035 70.3924C85.3915 71.6476 89.2044 69.0431 88.3875 65.8659C88.1252 64.9234 87.1868 64.3457 86.4868 63.8463C86.7998 62.6059 88.2921 62.091 89.1366 61.242C92.0828 59.102 94.7393 56.3487 95.6755 52.7024C97.8159 45.77 95.8615 37.4211 90.6362 31.9928C87.4035 29.1591 82.9611 28.7998 78.9759 28.1674C77.8601 28.0469 76.7394 27.9804 75.6239 28.0051H75.6236Z" fill="black"/>
<path fill-rule="evenodd" clip-rule="evenodd" d="M90.1556 58.166C91.9781 56.5962 95.1534 53.1947 94.8197 46.1303C94.486 39.0659 90.5138 32.5248 87.0693 31.609C83.6246 30.6932 69.6596 25.8528 67.5314 36.1877C65.4032 46.5227 74.0673 49.9241 76.2729 49.5316C78.4782 49.1392 80.7042 43.6447 80.7042 43.6447C80.7042 43.6447 79.942 49.6625 77.2255 50.3167C74.5094 50.9707 67.6572 49.9241 65.7287 42.3365C63.8004 34.7486 67.7569 32.6556 65.1096 32.0016C61.5834 31.1302 52.1901 29.9083 44.8558 35.2721C37.5214 40.6358 35.2625 50.9707 37.1754 49.9241C39.0883 48.8776 39.8433 45.4761 40.3533 47.9618C40.8633 50.4474 42.8803 54.3722 44.655 55.942C46.4297 57.5118 43.8722 67.062 44.345 68.7626C44.8177 70.4633 47.5897 70.9866 49.6828 70.9866C51.7761 70.9866 56.4918 71.1175 56.1622 69.6784C55.8326 68.2393 54.1392 65.6229 53.8784 62.8756C53.6178 60.1284 55.5369 59.2125 56.328 59.3435C57.1192 59.4742 57.562 60.6059 60.8378 60.6516C63.9783 60.6953 63.9342 59.7358 65.2486 59.8667C66.563 59.9976 67.4408 61.9598 67.552 64.3145C67.6632 66.6695 66.8402 68.6318 66.902 69.94C66.9639 71.2482 76.3955 71.5098 76.7136 69.94C77.032 68.3702 75.3633 66.2769 75.2706 64.3145C75.1779 62.3524 75.2539 58.4276 77.6901 57.3811C80.1263 56.3345 82.6315 53.9796 84.2757 55.5494C85.9195 57.1194 80.1872 60.39 80.1922 63.268C80.1974 66.1462 82.8252 69.1551 83.4794 69.1551C84.1336 69.1551 86.8439 68.3702 86.9004 66.8002C86.9569 65.2304 84.7578 65.7536 84.6712 63.922C84.5847 62.0907 88.257 59.8011 90.1553 58.166H90.1556Z" fill="white"/>
<path d="M89.7476 44.7531C89.7476 44.9249 89.7138 45.095 89.648 45.2538C89.5823 45.4125 89.4859 45.5567 89.3645 45.6782C89.243 45.7996 89.0988 45.896 88.9401 45.9617C88.7813 46.0275 88.6112 46.0613 88.4394 46.0613C88.2676 46.0613 88.0975 46.0275 87.9388 45.9617C87.7801 45.896 87.6359 45.7996 87.5144 45.6782C87.3929 45.5567 87.2966 45.4125 87.2308 45.2538C87.1651 45.095 87.1313 44.9249 87.1313 44.7531C87.1313 44.4062 87.2691 44.0735 87.5144 43.8281C87.7597 43.5828 88.0925 43.445 88.4394 43.445C88.7864 43.445 89.1191 43.5828 89.3645 43.8281C89.6098 44.0735 89.7476 44.4062 89.7476 44.7531V44.7531Z" fill="black"/>
<path fill-rule="evenodd" clip-rule="evenodd" d="M91.5637 55.07C92.4989 54.3427 90.109 52.7841 89.1739 51.3294C88.2387 49.8747 86.3684 52.2645 86.8879 53.7192C87.4074 55.1739 90.4207 55.5895 91.5637 55.07ZM53.9187 71.7445C55.5249 71.5242 57.4912 71.1568 57.4425 70.1281C57.3939 69.0994 56.1109 66.8218 56.1109 66.8218C56.1109 66.8218 55.0648 66.4544 54.2281 67.4097C53.3917 68.3648 53.3102 71.3037 53.9187 71.7447V71.7445ZM74.6382 71.85C76.2442 71.6297 78.2105 71.2623 78.1619 70.2337C78.1132 69.205 76.8302 66.9274 76.8302 66.9274C76.8302 66.9274 75.7841 66.5599 74.9474 67.5153C74.111 68.4704 74.0295 71.4093 74.6382 71.8502V71.85Z" fill="#BFBFBF" stroke="black" stroke-width="0.83125"/>
</svg>
