<?xml version="1.0" standalone="no"?>
<!DOCTYPE svg PUBLIC "-//W3C//DTD SVG 20010904//EN"
 "http://www.w3.org/TR/2001/REC-SVG-20010904/DTD/svg10.dtd">
<svg version="1.0" xmlns="http://www.w3.org/2000/svg"
 width="1072.000000pt" height="1072.000000pt" viewBox="0 0 1072.000000 1072.000000"
 preserveAspectRatio="xMidYMid meet">
<metadata>
Created by potrace 1.14, written by Peter Selinger 2001-2017
</metadata>
<g transform="translate(0.000000,1072.000000) scale(0.100000,-0.100000)"
fill="#000000" stroke="none">
<path d="M5140 8129 c-163 -22 -282 -72 -426 -180 l-77 -57 -36 22 c-32 20
-100 45 -141 52 -57 10 -82 14 -140 19 -36 3 -83 8 -105 10 -117 13 -223 19
-335 18 -111 -1 -164 -4 -275 -17 -56 -7 -160 -27 -236 -47 -42 -11 -85 -21
-95 -23 -17 -4 -126 -43 -179 -64 -17 -7 -208 -102 -276 -137 -10 -5 -19 -13
-19 -17 0 -5 -5 -8 -11 -8 -13 0 -154 -106 -213 -160 -121 -110 -195 -199
-297 -360 -193 -306 -269 -518 -266 -740 2 -98 4 -107 30 -141 66 -87 222 -84
296 5 20 24 28 20 41 -21 16 -49 90 -192 112 -217 10 -10 15 -23 12 -28 -3 -4
-1 -8 4 -8 5 0 17 -16 28 -35 10 -19 22 -35 26 -35 5 0 8 -5 8 -10 0 -12 41
-73 53 -78 4 -2 7 -8 7 -14 0 -5 14 -29 31 -54 37 -55 42 -75 42 -189 0 -95
-9 -174 -33 -300 -5 -27 -12 -63 -15 -80 -3 -16 -8 -41 -11 -55 -11 -58 -14
-298 -4 -331 6 -19 16 -50 22 -69 6 -19 19 -43 28 -52 10 -10 24 -26 32 -36
31 -44 176 -123 252 -138 88 -17 479 -24 494 -9 3 3 11 0 19 -6 9 -8 13 -8 13
-1 0 6 9 9 21 7 30 -6 127 14 184 38 28 11 72 43 98 69 l49 48 -5 58 c-8 88
-15 110 -64 217 -67 147 -91 207 -97 237 -2 15 -7 32 -11 38 -12 19 -8 137 5
167 22 48 40 54 91 30 24 -11 46 -21 49 -22 3 0 20 -9 38 -18 83 -45 268 -49
461 -12 13 2 47 7 75 10 l52 6 22 -48 c38 -82 43 -179 16 -323 -2 -14 -7 -41
-10 -60 -3 -19 -8 -38 -9 -41 -2 -3 -7 -43 -10 -90 -6 -71 -4 -91 13 -129 21
-49 72 -110 90 -110 7 0 12 -4 12 -8 0 -14 60 -32 180 -54 92 -16 383 -13 540
6 25 3 100 34 110 46 3 3 26 18 52 33 64 37 79 69 64 137 -3 14 -7 43 -10 65
-3 22 -15 65 -27 95 -11 30 -23 62 -25 70 -2 8 -15 53 -30 100 -29 94 -33 115
-38 176 -2 23 -6 46 -9 51 -4 6 -3 13 1 17 3 4 8 24 9 44 6 108 56 199 144
265 43 32 99 62 129 69 8 2 17 5 20 8 3 3 16 11 30 18 14 7 40 22 58 33 18 12
35 19 37 17 3 -2 -15 -27 -40 -54 -121 -132 -235 -313 -235 -373 0 -11 -5 -23
-10 -26 -6 -4 -7 -12 -1 -23 5 -9 5 -26 1 -38 -5 -12 -7 -24 -5 -26 3 -2 7
-22 10 -44 14 -91 67 -224 129 -321 52 -82 161 -173 226 -189 53 -12 130 -12
175 1 22 7 47 14 55 16 8 2 23 12 34 22 11 9 25 17 31 17 16 0 88 78 113 123
23 40 37 102 35 151 -3 51 -50 129 -101 166 -61 45 -64 50 -46 77 8 13 12 23
9 23 -9 0 46 50 75 69 27 17 34 22 66 49 12 9 36 28 55 42 120 90 263 224 319
299 14 19 33 42 43 52 9 11 15 19 11 19 -3 0 6 15 19 33 45 60 97 172 122 262
9 33 19 67 22 75 3 8 7 22 8 30 2 14 6 34 20 100 14 69 18 129 18 280 -1 176
-5 232 -23 320 -6 30 -14 69 -17 85 -3 17 -9 38 -14 48 -5 9 -7 17 -5 17 3 0
-11 46 -30 103 -38 107 -119 282 -160 342 -13 20 -24 39 -24 42 0 12 -131 179
-183 234 -35 38 -154 117 -227 152 -57 26 -190 73 -231 81 -13 3 -24 5 -24 6
0 1 -7 3 -15 5 -101 22 -155 32 -210 40 -19 3 -51 8 -70 12 -19 3 -48 7 -65 8
-16 2 -43 6 -60 9 -82 18 -374 27 -465 15z"/>
</g>
</svg>
